
        <svg xmlns="http://www.w3.org/2000/svg" xmlns:xlink="http://www.w3.org/1999/xlink" version="1.1" width="3216.486719990751" 
        height="2283.9348959024237" viewBox="0 0 3216.486719990751 2283.9348959024237">
			<rect fill="#2f3c4e" width="3216.486719990751" height="2283.9348959024237"/>
			<g transform="scale(10.824335999537553) translate(10, 10)">
				<defs id="SvgjsDefs7092"><linearGradient id="SvgjsLinearGradient7099"><stop id="SvgjsStop7100" stop-color="#fbb040" offset="0"></stop><stop id="SvgjsStop7101" stop-color="#f9ed32" offset="1"></stop></linearGradient><linearGradient id="SvgjsLinearGradient7102"><stop id="SvgjsStop7103" stop-color="#fbb040" offset="0"></stop><stop id="SvgjsStop7104" stop-color="#f9ed32" offset="1"></stop></linearGradient></defs><g id="SvgjsG7093" featureKey="e7LhAk-0" transform="matrix(0.14634146341463417,0,0,0.14634146341463417,65.36585365853658,-5.487804878048781)" fill="#ffffff"><polygon xmlns="http://www.w3.org/2000/svg" class="st0" points="696.7,239.6 508.5,37.5 508.5,441.7 " style="stroke: #ffffff; stroke-width: 1.1669; stroke-miterlimit: 10;"></polygon><polygon xmlns="http://www.w3.org/2000/svg" class="st0" points="822.2,454.8 832.1,178.8 546.2,464.6 " style="stroke: #ffffff; stroke-width: 1.1669; stroke-miterlimit: 10;"></polygon><polygon xmlns="http://www.w3.org/2000/svg" class="st0" points="758.9,695.7 961,507.5 556.8,507.5 " style="stroke: #ffffff; stroke-width: 1.1669; stroke-miterlimit: 10;"></polygon><polygon xmlns="http://www.w3.org/2000/svg" class="st0" points="543.7,821.2 819.7,831.1 533.9,545.2 " style="stroke: #ffffff; stroke-width: 1.1669; stroke-miterlimit: 10;"></polygon><polygon xmlns="http://www.w3.org/2000/svg" class="st0" points="302.8,757.9 491,960 491,555.8 " style="stroke: #ffffff; stroke-width: 1.1669; stroke-miterlimit: 10;"></polygon><polygon xmlns="http://www.w3.org/2000/svg" class="st0" points="177.3,542.7 167.4,818.7 453.3,532.9 " style="stroke: #ffffff; stroke-width: 1.1669; stroke-miterlimit: 10;"></polygon><polygon xmlns="http://www.w3.org/2000/svg" class="st0" points="240.6,301.8 38.5,490 442.7,490 " style="stroke: #ffffff; stroke-width: 1.1669; stroke-miterlimit: 10;"></polygon><polygon xmlns="http://www.w3.org/2000/svg" class="st0" points="455.8,176.3 179.8,166.4 465.6,452.3 " style="stroke: #ffffff; stroke-width: 1.1669; stroke-miterlimit: 10;"></polygon><circle xmlns="http://www.w3.org/2000/svg" class="st0" cx="502.7" cy="497" r="31.4" style="stroke: #ffffff; stroke-width: 1.1669; stroke-miterlimit: 10;"></circle></g><g id="SvgjsG7094" featureKey="nameLeftFeature-0" transform="matrix(2.275541838217121,0,0,2.275541838217121,-3.48886026198241,142.04474498007704)" fill="url(#SvgjsLinearGradient7099)"><path d="M7.0508 20.19531 c-3.0957 0 -5.5176 -1.582 -5.5176 -5.1367 l0 -9.1699 l2.9297 0 l0 8.7695 c0 2.1484 1.1426 2.9492 2.5879 2.9492 c1.4551 0 2.6074 -0.81055 2.6074 -2.9492 l0 -8.7695 l2.9297 0 l0 9.1699 c0 3.5547 -2.4316 5.1367 -5.5371 5.1367 z M23.52539375 12.5488 c1.5918 0.43945 2.6563 1.4844 2.6563 3.4961 c0 2.3828 -1.4453 3.9551 -4.4238 3.9551 l-5.8105 0 l0 -14.111 l4.5703 0 c3.0469 0 4.6484 1.4648 4.6484 3.8672 c0 1.2402 -0.53711 2.2559 -1.6406 2.793 z M20.54689375 8.32 l-1.7773 0 l0 3.3203 l1.9043 0 c1.25 0 1.7969 -0.74219 1.7969 -1.6992 c0 -0.9375 -0.61523 -1.6211 -1.9238 -1.6211 z M21.21089375 17.4902 c1.582 0 2.1289 -0.84961 2.1289 -1.7676 c0 -0.9375 -0.53711 -1.8262 -2.1875 -1.8262 l-2.3828 0 l0 3.5938 l2.4414 0 z M28.789090625 20 l0 -14.111 l2.9297 0 l0 14.111 l-2.9297 0 z M49.32615625 20.58594 l-2.4414 0.92773 l-1.8066 -2.0313 c-0.99609 0.45898 -2.1484 0.71289 -3.3984 0.71289 c-4.1992 0 -7.3047 -2.832 -7.3047 -7.2559 c0 -4.4336 3.1055 -7.2461 7.3047 -7.2461 s7.3047 2.8125 7.3047 7.2461 c0 2.0996 -0.69336 3.8379 -1.875 5.0879 z M37.29495625 12.939499999999999 c0 3.0078 1.9043 4.707 4.3848 4.707 s4.3848 -1.6992 4.3848 -4.707 c0 -2.8516 -1.9043 -4.5508 -4.3848 -4.5508 s-4.3848 1.6992 -4.3848 4.5508 z M57.0508 20.19531 c-3.0957 0 -5.5176 -1.582 -5.5176 -5.1367 l0 -9.1699 l2.9297 0 l0 8.7695 c0 2.1484 1.1426 2.9492 2.5879 2.9492 c1.4551 0 2.6074 -0.81055 2.6074 -2.9492 l0 -8.7695 l2.9297 0 l0 9.1699 c0 3.5547 -2.4316 5.1367 -5.5371 5.1367 z"></path></g><g id="SvgjsG7095" featureKey="nameRightFeature-0" transform="matrix(2.3040584552543657,0,0,2.3040584552543657,143.4098549809951,141.45464316311154)" fill="url(#SvgjsLinearGradient7102)"><path d="M1.9922 20 l0 -13.926 l2.334 0 l0 13.926 l-2.334 0 z M15.996059375 6.074 l0 2.0801 l-3.4375 0 l0 11.846 l-2.3242 0 l0 -11.846 l-3.4473 0 l0 -2.0801 l9.209 0 z M24.52144375 20.18555 c-4.0039 0 -7.0313 -2.7441 -7.0313 -7.1582 c0 -4.4043 3.0273 -7.1484 7.0313 -7.1484 c3.9941 0 7.0215 2.7441 7.0215 7.1484 c0 4.4141 -3.0273 7.1582 -7.0215 7.1582 z M24.52144375 18.0176 c2.6367 0 4.6973 -1.8262 4.6973 -4.9902 c0 -3.1348 -2.0605 -4.9707 -4.6973 -4.9707 s-4.6973 1.8359 -4.6973 4.9707 c0 3.1641 2.0605 4.9902 4.6973 4.9902 z M39.541025 20.18555 c-2.959 0 -5.2637 -1.6504 -5.2637 -4.9316 l0 -9.1797 l2.3438 0 l0 8.8574 c0 2.2168 1.2793 3.1641 2.9199 3.1641 s2.9395 -0.95703 2.9395 -3.1641 l0 -8.8574 l2.334 0 l0 9.1797 c0 3.2813 -2.3047 4.9316 -5.2734 4.9316 z M52.978471875 20.18555 c-2.9492 0 -5.1563 -1.4063 -5.6055 -3.8672 l2.4023 -0.55664 c0.25391 1.6016 1.5723 2.4805 3.291 2.4805 c1.3574 0 2.5879 -0.57617 2.5684 -2.041 c-0.019531 -1.5234 -1.709 -1.9629 -3.5352 -2.4805 c-2.1094 -0.61523 -4.2773 -1.3184 -4.2773 -3.877 c0 -2.5977 2.1289 -3.9648 4.7754 -3.9648 c2.4414 0 4.7559 1.0254 5.293 3.5254 l-2.2559 0.56641 c-0.3125 -1.4844 -1.4648 -2.1387 -2.9199 -2.1387 c-1.2988 0 -2.5293 0.55664 -2.5293 1.9727 c0 1.2891 1.4746 1.6895 3.1641 2.1582 c2.1777 0.60547 4.6973 1.3477 4.6973 4.1406 c0 2.8809 -2.4121 4.082 -5.0684 4.082 z"></path></g>
			</g>
		</svg>
	